<svg width="21" height="21" viewBox="0 0 21 21" fill="none" xmlns="http://www.w3.org/2000/svg">
<path d="M10.321 12.119C9.70289 12.119 9.0987 11.9357 8.5848 11.5923C8.07089 11.249 7.67036 10.7609 7.43383 10.1899C7.19731 9.61886 7.13542 8.99052 7.256 8.38433C7.37658 7.77814 7.67421 7.22132 8.11125 6.78428C8.54829 6.34724 9.10511 6.04961 9.7113 5.92904C10.3175 5.80846 10.9458 5.87034 11.5168 6.10687C12.0879 6.34339 12.5759 6.74393 12.9193 7.25783C13.2627 7.77174 13.446 8.37592 13.446 8.99399C13.445 9.82249 13.1154 10.6168 12.5296 11.2026C11.9437 11.7884 11.1495 12.118 10.321 12.119ZM10.321 7.11899C9.95012 7.11899 9.5876 7.22896 9.27926 7.43498C8.97092 7.64101 8.73059 7.93385 8.58868 8.27646C8.44677 8.61907 8.40964 8.99607 8.48198 9.35978C8.55433 9.7235 8.73291 10.0576 8.99513 10.3198C9.25735 10.582 9.59145 10.7606 9.95516 10.833C10.3189 10.9053 10.6959 10.8682 11.0385 10.7263C11.3811 10.5843 11.6739 10.344 11.88 10.0357C12.086 9.72734 12.196 9.36483 12.196 8.99399C12.1955 8.49686 11.9978 8.02024 11.6462 7.66871C11.2947 7.31719 10.8181 7.11949 10.321 7.11899Z" fill="white"/>
<path d="M10.321 19.619L5.04846 13.4009C4.9752 13.3075 4.9027 13.2135 4.83096 13.119C3.93032 11.9326 3.44378 10.4835 3.44596 8.99399C3.44596 7.17062 4.17029 5.42194 5.4596 4.13263C6.74891 2.84332 8.4976 2.11899 10.321 2.11899C12.1443 2.11899 13.893 2.84332 15.1823 4.13263C16.4716 5.42194 17.196 7.17062 17.196 8.99399C17.1981 10.4828 16.7118 11.9313 15.8116 13.1171L15.811 13.119C15.811 13.119 15.6235 13.3652 15.5953 13.3984L10.321 19.619ZM5.82846 12.3659C5.82971 12.3659 5.97471 12.5584 6.00784 12.5996L10.321 17.6865L14.6397 12.5927C14.6672 12.5584 14.8135 12.3646 14.8141 12.364C15.5498 11.3947 15.9474 10.2109 15.946 8.99399C15.946 7.50215 15.3533 6.0714 14.2984 5.01651C13.2435 3.96162 11.8128 3.36899 10.321 3.36899C8.82912 3.36899 7.39838 3.96162 6.34349 5.01651C5.28859 6.0714 4.69596 7.50215 4.69596 8.99399C4.69465 10.2116 5.0927 11.3961 5.82909 12.3659H5.82846Z" fill="white"/>
</svg>
