<svg width="22" height="16" viewBox="0 0 22 16" fill="none" xmlns="http://www.w3.org/2000/svg">
<path fill-rule="evenodd" clip-rule="evenodd" d="M10.5525 1.38263C15.9264 1.38263 20.2976 4.29556 20.2976 7.8767C20.2976 9.56628 19.3246 11.1073 17.7324 12.2638L20.8654 14.3472C21.1586 14.5426 21.1596 14.8587 20.8664 15.0541C20.7203 15.1528 20.5272 15.2015 20.335 15.2015C20.1439 15.2015 19.9517 15.1528 19.8046 15.0555L16.6338 12.9483C14.9658 13.8385 12.8508 14.3714 10.5525 14.3714C5.17851 14.3714 0.806305 11.4578 0.806305 7.8767C0.806305 4.29556 5.17851 1.38263 10.5525 1.38263ZM10.5525 2.38295C6.00612 2.38295 2.30741 4.84707 2.30741 7.8767C2.30741 10.9063 6.00612 13.3711 10.5525 13.3711C15.0978 13.3711 18.7965 10.9063 18.7965 7.8767C18.7965 4.84707 15.0978 2.38295 10.5525 2.38295Z" fill="#A9A9A9" stroke="#A9A9A9"/>
</svg>
